<svg xmlns="http://www.w3.org/2000/svg" viewBox="0 0 305.6 85.26"><defs><style>.cls-1{fill:#180846;}.cls-2{fill:#fff222;}.cls-3{fill:#cabf18;}</style></defs><g id="Layer_2" data-name="Layer 2"><g id="Objects"><path class="cls-1" d="M135.09,55.19h-5.77V53.07a12.59,12.59,0,0,1-7.59,2.42c-9.47,0-15-5.42-15-13.75,0-8.5,5.63-14.23,15.17-14.23,4.93,0,9,1.61,11.47,4.24L129,36.21a8.67,8.67,0,0,0-7-2.94c-5.84,0-8.53,3-8.53,8.47,0,5.16,2.53,8,8.33,8,3.87,0,6.64-1.92,7.14-4.76l.61-.6h-9.58V38.6h15.15Z"/><path class="cls-1" d="M144.23,32.83a3.44,3.44,0,1,1,3.4-3.44A3.32,3.32,0,0,1,144.23,32.83Zm3.23,22.33H141V33.91h6.47Z"/><path class="cls-1" d="M165.1,55.53a8.91,8.91,0,0,1-5.66-1.72h-.07v8.5h-6.48V33.91h6.48v1.35h.07a9.43,9.43,0,0,1,5.66-1.65c7.39,0,10.83,4.65,10.83,10.93S172.55,55.53,165.1,55.53Zm-.81-16.46c-3.71,0-5.19,2-5.19,5.43s1.45,5.5,5.16,5.5,5.19-2,5.19-5.5S168,39.07,164.29,39.07Z"/><path class="cls-1" d="M202.57,46.9h-16.9l.61.57a6,6,0,0,0,5.26,2.9,8.41,8.41,0,0,0,5.33-1.75l3.68,3.7a12.94,12.94,0,0,1-9,3.17c-8.1,0-12.21-4.78-12.21-10.82,0-6.31,4.32-11.09,11.8-11.09,7.76,0,11.64,5,11.64,11.09A13.43,13.43,0,0,1,202.57,46.9Zm-6.27-5-.58-.57a4.92,4.92,0,0,0-4.65-2.67,5.08,5.08,0,0,0-4.69,2.67l-.6.57Z"/><path class="cls-1" d="M221.08,39.21h-1.85c-4,0-5.63,1.92-5.63,5.43V55.16h-6.48V33.91h6.48v2.53h.07c1.21-1.79,3.2-2.76,6.1-2.76h1.31Z"/><path class="cls-1" d="M251,55.16H248.6V33.07h-.06l-1.93,4.69L238,55.53H238l-8.67-17.87-1.85-4.59h-.07V55.16H225V27.84h2.09l9.44,19.39L238,50.37H238l1.42-3.17,9.41-19.36H251Z"/><path class="cls-1" d="M274.07,55.16h-2.26V52.83h-.07c-1.48,1.65-4,2.7-7.29,2.7-4.24,0-8.26-1.69-8.26-6.38,0-6.4,7.79-6.74,13.19-6.74a21.51,21.51,0,0,1,2.66.2l-.23-.23V41.23c0-4.15-3-5.46-6.28-5.46a10.25,10.25,0,0,0-6.64,2l-1.55-1.58a12.25,12.25,0,0,1,8.19-2.63c4.46,0,8.54,1.75,8.54,7.59ZM272,44.5c-.6-.07-1.78-.13-2.49-.13-.95,0-2.06,0-3.24.06a20.73,20.73,0,0,0-3.58.48c-2.25.54-4.28,1.72-4.28,4.24,0,3.41,3.75,4.19,6,4.19s7.36-.81,7.36-4.22V44.74Z"/><path class="cls-1" d="M290.09,36.24h-.58c-3.3,0-6.94,2.33-6.94,8.43V55.16h-2.26V33.91h2.26v4.62h.06a7.36,7.36,0,0,1,7.22-4.85h.24Z"/><path class="cls-1" d="M305.6,53.47a8.78,8.78,0,0,1-5.5,2c-3.3,0-5.43-2.19-5.43-6.3v-13l.14-.24h-2.7V33.91h2.7l-.14-.23V30l2.26-1.21v4.89l-.13.23h6.71V36H296.8l.13.24V49.05c0,2.74,1.22,4.29,3.34,4.29A5.33,5.33,0,0,0,304,51.85Z"/><path class="cls-2" d="M42.64,15.64A27,27,0,0,1,63.2,25.12,7.8,7.8,0,0,0,75,15,42.66,42.66,0,0,0,9.18,69.19C1.2,34.72,22.77,14.9,42.64,15.64Z"/><path class="cls-3" d="M74,59.39a7.82,7.82,0,0,0-5.69-1.85A7.83,7.83,0,0,0,63,60.24a27.08,27.08,0,1,1-20.61-44.6C22.48,14.91.84,34.66,8.85,69a42.85,42.85,0,0,0,66,1.34,7.65,7.65,0,0,0,1.5-2.65,7.7,7.7,0,0,0-.46-6A8,8,0,0,0,74,59.39Z"/><path class="cls-3" d="M46.17,34.82H45a7.71,7.71,0,0,0-5.29,2.39,7.88,7.88,0,0,0,0,10.84A7.71,7.71,0,0,0,45,50.44H71C68.53,35,46.17,34.82,46.17,34.82Z"/><path class="cls-2" d="M84.35,34.82H46S68.36,35,70.77,50.44H84.35a7.64,7.64,0,0,0,3.06-.51A7.8,7.8,0,0,0,90,48.26a7.67,7.67,0,0,0,1.75-2.57,7.86,7.86,0,0,0,0-6.12A7.67,7.67,0,0,0,90,37a7.77,7.77,0,0,0-5.68-2.18Z"/></g></g></svg>